<svg width="401.998" height="401.998" viewBox="0 0 401.998 401.998" xmlns="http://www.w3.org/2000/svg" xmlns:xlink="http://www.w3.org/1999/xlink" id="Capa_1" overflow="hidden"><g><g><path d="M73.092 164.452 328.905 164.452C333.854 164.452 338.138 162.645 341.753 159.028 345.366 155.412 347.18 151.13 347.18 146.181 347.18 141.232 345.367 136.952 341.753 133.331L213.846 5.424C210.232 1.812 205.951 0 200.999 0 196.047 0 191.766 1.812 188.149 5.424L60.242 133.331C56.625 136.948 54.818 141.232 54.818 146.181 54.818 151.129 56.625 155.412 60.242 159.028 63.863 162.645 68.144 164.452 73.092 164.452Z" fill="#333333"/><path d="M328.905 237.549 73.092 237.549C68.14 237.549 63.859 239.357 60.242 242.97 56.625 246.587 54.818 250.868 54.818 255.817 54.818 260.766 56.625 265.05 60.242 268.665L188.149 396.57C191.77 400.187 196.051 401.998 200.999 401.998 205.947 401.998 210.232 400.187 213.846 396.57L341.753 268.664C345.366 265.05 347.18 260.766 347.18 255.816 347.18 250.868 345.367 246.587 341.753 242.969 338.139 239.353 333.854 237.549 328.905 237.549Z" fill="#333333"/></g></g><g></g><g></g><g></g><g></g><g></g><g></g><g></g><g></g><g></g><g></g><g></g><g></g><g></g><g></g><g></g></svg>